<svg width="48" height="49" viewBox="0 0 48 49" fill="none" xmlns="http://www.w3.org/2000/svg">
<path d="M10.6875 18.7344C10.6875 18.7344 9.5625 16.4506 9.5625 24.7344C9.5625 27.7011 10.4422 30.6012 12.0905 33.0679C13.7387 35.5347 16.0814 37.4572 18.8222 38.5926C21.5631 39.7279 24.5791 40.0249 27.4889 39.4461C30.3986 38.8674 33.0713 37.4388 35.1691 35.341C37.2669 33.2432 38.6955 30.5704 39.2743 27.6607C39.8531 24.751 39.556 21.735 38.4207 18.9941C37.2854 16.2532 35.3628 13.9105 32.8961 12.2623C30.4293 10.6141 27.5292 9.73437 24.5625 9.73437" stroke="#F2F0EF" stroke-width="3" stroke-miterlimit="10" stroke-linecap="square"/>
<path d="M2.4375 24.7344L9.9375 17.2344L17.4375 24.7344" stroke="#F2F0EF" stroke-width="3" stroke-linecap="square" stroke-linejoin="round"/>
</svg>
